<svg width="30" height="37" viewBox="0 0 30 37" fill="none" xmlns="http://www.w3.org/2000/svg">
<path fill-rule="evenodd" clip-rule="evenodd" d="M11.6135 9.62376V13.7787H26.2935C26.8497 13.7787 27.3448 13.9926 27.7772 14.4203C28.2096 14.848 28.4282 15.3871 28.4282 16.0377V20.4999C28.4282 21.0827 28.2096 21.6038 27.7772 22.0646C27.3448 22.527 26.8497 22.7589 26.2935 22.7589H11.6135V27.3235H27.0224C27.6137 27.3235 28.1241 27.5388 28.5596 27.965C28.992 28.3927 29.2105 28.9499 29.2105 29.6337V34.0447C29.2105 34.6621 28.992 35.1997 28.5596 35.6621C28.1241 36.1244 27.6137 36.3548 27.0224 36.3548H2.45132C1.85996 36.3548 1.34654 36.1244 0.914102 35.6621C0.480136 35.1997 0.263153 34.6621 0.263153 34.0447V33.8926V29.6337V7.3648V2.90109C0.263153 2.25202 0.480136 1.71438 0.914102 1.28518C1.34654 0.857484 1.85996 0.645142 2.45132 0.645142H27.0224C27.6137 0.645142 28.1241 0.857484 28.5596 1.28518C28.992 1.71438 29.2105 2.25202 29.2105 2.90109V7.3648C29.2105 7.94761 28.9828 8.46868 28.5321 8.93102C28.0813 9.39335 27.577 9.62376 27.0224 9.62376H11.6135Z" fill="white"/>
</svg>
