<svg width="39" height="39" viewBox="0 0 39 39" fill="none" xmlns="http://www.w3.org/2000/svg">
<path fill-rule="evenodd" clip-rule="evenodd" d="M0.21051 19.5001C0.21051 15.9561 1.02655 12.7165 2.65864 9.78133C4.29223 6.84614 6.50228 4.535 9.2903 2.85097C12.0798 1.16541 15.1074 0.322632 18.3716 0.322632C19.0169 0.322632 19.5111 0.339457 19.851 0.374636C21.8229 0.513825 23.3547 0.738668 24.4433 1.05222L24.6978 1.10423C25.0706 1.13941 25.3611 1.27707 25.5663 1.52026C25.7684 1.76499 25.8702 2.07702 25.8702 2.45787C25.8702 2.80661 25.8028 3.13699 25.6666 3.44902L23.5748 8.29614C23.0313 9.72015 22.2152 10.4314 21.1267 10.4314C18.3372 10.4314 16.0837 11.0233 14.3677 12.2026C12.6503 13.3849 11.5348 15.1409 11.0257 17.4673C10.855 18.2672 10.7712 18.9785 10.7712 19.6025C10.7712 21.4456 11.2713 23.096 12.276 24.5552C13.2792 26.0144 14.8005 27.004 16.8413 27.5256C17.9284 27.7336 18.8987 27.8376 19.7491 27.8376C21.8918 27.8376 23.6003 27.3084 24.876 26.2484C26.1517 25.1884 26.9752 23.8424 27.3496 22.2089H24.4927C23.9491 22.2089 23.5074 22.0269 23.1675 21.6628C22.8261 21.2973 22.6569 20.8384 22.6569 20.2816V13.4538C22.6569 12.9337 22.8351 12.4825 23.193 12.1001C23.5494 11.7193 23.9836 11.5265 24.4927 11.5265H36.38C36.9579 11.5265 37.4341 11.7086 37.8084 12.0741C38.1827 12.4381 38.3684 12.9001 38.3684 13.4538L38.2681 17.2057C38.2336 17.6233 38.1902 18.3621 38.1408 19.422C38.0884 20.4835 38.012 21.4625 37.9102 22.3664C37.6048 25.424 36.5671 28.194 34.7988 30.678C33.0289 33.1619 30.7844 35.1167 28.0653 36.5407C25.3432 37.9662 22.4863 38.6775 19.4931 38.6775C16.16 38.6775 13.0142 37.8179 10.0554 36.0971C7.09822 34.3779 4.71597 32.0408 2.91468 29.0872C1.1119 26.1367 0.21051 22.9385 0.21051 19.5001Z" fill="white"/>
</svg>
