<svg width="17" height="18" viewBox="0 0 17 18" fill="none" xmlns="http://www.w3.org/2000/svg">
<path d="M8.57143 7.62946V10.5759H13.4375C13.2366 11.8371 11.9643 14.2701 8.57143 14.2701C5.64732 14.2701 3.25893 11.8482 3.25893 8.85714C3.25893 5.86607 5.64732 3.4442 8.57143 3.4442C10.2344 3.4442 11.3504 4.15848 11.9866 4.77232L14.3192 2.52902C12.8237 1.13393 10.8817 0.285713 8.57143 0.285713C3.82813 0.285713 0 4.11384 0 8.85714C0 13.6004 3.82813 17.4286 8.57143 17.4286C13.5156 17.4286 16.7969 13.9464 16.7969 9.05804C16.7969 8.48884 16.7411 8.06473 16.6629 7.62946H8.57143Z" fill="white"/>
</svg>
