<svg width="48" height="41" viewBox="0 0 48 41" fill="none" xmlns="http://www.w3.org/2000/svg">
<path fill-rule="evenodd" clip-rule="evenodd" d="M47.4447 7.46819V7.46512L42.7178 4.93745C41.755 2.06684 39.0774 0 35.9251 0C33.6664 0 31.6517 1.0671 30.3363 2.72364C29.7727 3.44014 29.3342 4.26688 29.0675 5.16251C28.9726 5.46718 28.9003 5.7795 28.8506 6.10254L25.531 20.5077L8.24478 30.2601L1.17177 34.2575L0.923141 34.3677C0.864375 34.3922 0.816156 34.429 0.783006 34.478C0.742322 34.5346 0.71972 34.605 0.71972 34.6847C0.71972 34.8684 0.870402 35.0215 1.05122 35.0215H1.05574L1.10999 35.0123H1.12053L10.5593 34.0876L11.8717 33.959L10.8968 34.5071L0.440958 40.3631C0.332467 40.4243 0.263153 40.5392 0.263153 40.6632C0.263153 40.85 0.413835 41 0.597667 41C0.618763 41 0.641365 41 0.660954 40.9969L0.733281 40.9724L13.1239 36.8311L16.1782 35.8084C19.2551 38.3912 23.203 39.9482 27.5095 39.9482C36.2385 39.9482 43.5059 33.5517 45.0112 25.1236C45.0278 25.0608 45.0368 24.9965 45.0429 24.9307C45.2161 23.9355 45.305 22.9144 45.305 21.8656C45.305 21.0481 45.2508 20.2428 45.1453 19.4497C45.0594 18.7991 44.9359 18.1622 44.7882 17.5391C44.7837 17.5161 44.7746 17.4901 44.7731 17.4702C44.6857 17.1012 44.5938 16.7429 44.4929 16.3832C44.0468 14.8445 42.8655 12.4271 42.088 11.0691L47.4432 8.03771C47.4432 8.03771 47.4447 8.03925 47.4447 8.03771L47.5095 7.99944C47.5849 7.94279 47.6316 7.85246 47.6316 7.75142C47.6316 7.62435 47.5532 7.51258 47.4447 7.46819Z" fill="white"/>
</svg>
