<svg width="40" height="37" viewBox="0 0 40 37" fill="none" xmlns="http://www.w3.org/2000/svg">
<path fill-rule="evenodd" clip-rule="evenodd" d="M29.5086 35.9984C29.3038 35.8951 27.8268 34.3992 25.0761 31.5078C22.3254 28.6193 18.304 24.3503 13.006 18.7036C12.4977 18.193 12.1733 17.9385 12.0388 17.9385C11.9027 17.9385 11.8175 18.0148 11.7831 18.1676C11.7488 18.3203 11.7323 18.5689 11.7323 18.9073V34.1626C11.7323 34.7077 11.538 35.1824 11.1463 35.5912C10.7546 35.9984 10.2733 36.2006 9.69622 36.2006H2.92119C2.27538 36.2006 1.71478 35.9385 1.24088 35.4115C0.762505 34.8844 0.526306 34.263 0.526306 33.5487V3.50066C0.526306 2.75346 0.78194 2.09012 1.29171 1.51213C1.79999 0.934137 2.39497 0.645142 3.07218 0.645142H9.39125C9.9668 0.645142 10.4168 0.720011 10.7397 0.872744C11.0611 1.02698 11.4782 1.37587 11.9865 1.91942C13.5487 3.55307 16.0945 6.21243 19.6271 9.90348C23.1581 13.5945 25.9267 16.459 27.9284 18.5C28.2005 18.6707 28.3874 18.7545 28.489 18.7545C28.6938 18.7545 28.7955 18.4835 28.7955 17.9385V2.73549C28.7955 2.19194 28.9973 1.70679 29.4069 1.28153C29.8135 0.856273 30.2725 0.645142 30.7822 0.645142H37.2493C37.9968 0.645142 38.6426 0.916169 39.1853 1.45972C39.7279 2.00327 40 2.63367 40 3.34792V33.7015C40 34.3828 39.7369 34.9952 39.2107 35.5372C38.6859 36.0838 38.0805 36.3548 37.4033 36.3548H31.6478C31.002 36.3548 30.5505 36.3294 30.2964 36.2785C30.0422 36.2275 29.7806 36.1347 29.5086 35.9984Z" fill="white"/>
</svg>
