<svg width="39" height="39" viewBox="0 0 39 39" fill="none" xmlns="http://www.w3.org/2000/svg">
<path fill-rule="evenodd" clip-rule="evenodd" d="M27.9639 19.3504C27.9639 17.8495 27.5804 16.4684 26.8194 15.212C26.0539 13.954 25.0393 12.9498 23.771 12.1993C22.5058 11.4488 21.1443 11.072 19.6851 11.072C18.157 11.072 16.762 11.4488 15.4952 12.1993C14.2285 12.9498 13.2307 13.954 12.5018 15.212C11.7729 16.4684 11.4078 17.8495 11.4078 19.3504C11.4078 20.8529 11.7729 22.2417 12.5018 23.5166C13.2307 24.7915 14.2285 25.8049 15.4952 26.5554C16.762 27.3059 18.157 27.6827 19.6851 27.6827C21.1443 27.6827 22.5058 27.3059 23.771 26.5554C25.0393 25.8049 26.0539 24.7915 26.8194 23.5166C27.5804 22.2417 27.9639 20.8529 27.9639 19.3504ZM0.78949 19.8226C0.78949 16.3639 1.64671 13.1681 3.36422 10.2339C5.08172 7.29957 7.39974 4.96813 10.3137 3.23955C13.2307 1.50943 16.4075 0.645142 19.8425 0.645142C23.279 0.645142 26.4619 1.50943 29.3957 3.23955C32.3264 4.96813 34.6521 7.29957 36.3711 10.2339C38.0886 13.1681 38.9474 16.3639 38.9474 19.8226C38.9474 23.2813 38.0886 26.477 36.3711 29.4113C34.6521 32.3456 32.3264 34.677 29.3957 36.4056C26.4619 38.1342 23.279 39 19.8425 39C16.4075 39 13.2307 38.1342 10.3137 36.4056C7.39974 34.677 5.08172 32.3456 3.36422 29.4113C1.64671 26.477 0.78949 23.2813 0.78949 19.8226Z" fill="white"/>
</svg>
